<?xml version="1.0" standalone="no"?>
<!DOCTYPE svg PUBLIC "-//W3C//DTD SVG 20010904//EN"
 "http://www.w3.org/TR/2001/REC-SVG-20010904/DTD/svg10.dtd">
<svg version="1.0" xmlns="http://www.w3.org/2000/svg"
 width="900.000000pt" height="1000.000000pt" viewBox="0 0 900.000000 1000.000000"
 preserveAspectRatio="xMidYMid meet">
<metadata>
Created by potrace 1.15, written by Peter Selinger 2001-2017
</metadata>
<g transform="translate(0.000000,1000.000000) scale(0.100000,-0.100000)"
fill="#000000" stroke="none">
<path d="M2580 9370 c-79 -22 -140 -47 -140 -59 0 -28 273 -90 535 -120 155
-18 428 -41 475 -39 25 0 0 5 -55 9 -493 43 -865 105 -865 143 0 17 34 40 97
66 60 24 39 24 -47 0z"/>
<path d="M2015 7894 c4 -32 35 -306 70 -609 l63 -550 -23 -25 c-52 -57 -53
-69 -28 -280 l16 -144 39 -42 c24 -26 74 -61 126 -87 382 -198 1253 -321 2257
-320 455 0 621 9 1153 60 68 6 89 -10 25 -20 -59 -10 -330 -35 -518 -49 -233
-17 -1206 -17 -1420 0 -841 68 -1372 186 -1607 358 l-50 37 6 -39 c3 -21 24
-199 46 -394 167 -1475 340 -2986 346 -3022 12 -76 157 -177 355 -246 193 -68
511 -133 809 -166 520 -58 1275 -54 1733 11 106 15 141 14 124 -3 -6 -6 -183
-30 -387 -53 -58 -6 -190 -16 -295 -21 -963 -49 -1953 100 -2273 342 l-55 41
5 -60 c7 -68 24 -108 72 -161 38 -42 39 -45 66 -287 68 -595 94 -818 120
-1053 28 -241 33 -268 60 -322 17 -33 35 -60 40 -60 6 0 10 -5 10 -12 0 -19
92 -102 170 -153 212 -138 519 -232 925 -282 207 -25 782 -25 991 0 614 74
1058 278 1174 539 12 27 24 88 31 149 5 57 28 262 50 454 22 193 56 494 75
670 l36 320 44 47 c53 57 62 78 71 171 l6 72 -51 -46 c-58 -52 -192 -127 -191
-107 0 7 39 36 87 64 94 55 145 109 161 172 6 20 26 177 46 347 19 171 44 387
55 480 11 94 72 627 135 1185 63 558 124 1090 135 1182 11 92 20 179 20 194
l0 26 -32 -22 c-34 -22 -210 -110 -222 -110 -3 0 -6 6 -6 13 0 6 32 25 70 40
62 25 153 79 187 111 16 14 58 373 49 410 -4 15 -23 44 -42 66 l-36 39 16 128
c9 70 34 288 56 483 22 195 46 407 54 470 7 63 12 117 10 119 -1 2 -60 -11
-131 -28 -867 -207 -2389 -274 -3638 -160 -407 37 -766 90 -1020 151 -71 17
-141 33 -154 36 -23 5 -24 4 -16 -54z m755 -763 c0 -4 23 -9 51 -10 40 0 72
-11 135 -43 46 -23 84 -48 84 -55 0 -7 6 -10 13 -7 15 5 127 -103 127 -123 0
-7 5 -13 10 -13 6 0 10 -7 10 -15 0 -8 4 -15 10 -15 5 0 16 -16 25 -35 9 -19
23 -39 31 -46 17 -14 18 -36 2 -42 -7 -2 -5 -3 4 -2 20 3 58 -70 58 -112 0
-13 6 -26 14 -29 7 -3 24 -42 36 -87 13 -45 27 -86 32 -91 4 -6 8 -23 8 -38 0
-15 5 -28 10 -28 6 0 10 -4 10 -10 0 -5 -6 -10 -12 -10 -7 0 -31 -5 -52 -11
-47 -13 -32 -29 27 -29 20 0 37 -4 37 -10 0 -13 -11 -12 -89 4 -35 7 -74 12
-85 9 -21 -3 -21 -3 -1 7 19 9 18 10 -5 9 -42 -2 -47 3 -10 10 19 4 -23 6 -95
5 -161 -2 -195 3 -195 26 0 13 -11 20 -37 25 -21 4 -41 12 -45 18 -5 8 -40 12
-97 12 -50 0 -83 -3 -73 -8 9 -4 -1 -5 -23 -1 -22 3 -41 10 -43 14 -2 5 -10 6
-18 3 -8 -3 -20 -1 -27 5 -6 5 -27 13 -44 17 -27 5 -33 11 -33 31 0 21 4 24
23 20 12 -3 16 -3 10 0 -15 7 -18 84 -3 84 6 0 10 56 10 148 0 156 -7 225 -21
216 -12 -7 -11 -44 1 -44 6 0 10 -46 10 -119 0 -69 -4 -122 -10 -126 -5 -3
-10 -30 -11 -58 -1 -99 -20 -11 -26 120 -6 125 0 171 17 143 7 -11 10 -8 10
13 0 15 -4 27 -10 27 -12 0 -4 47 22 125 14 42 32 71 60 98 37 35 43 37 104
37 35 0 64 -4 64 -9z m324 -5041 c14 0 26 -4 26 -10 0 -5 7 -10 15 -10 25 0
135 -33 135 -40 0 -4 -17 -11 -37 -17 -34 -10 -29 -11 42 -8 44 2 87 5 95 5
34 3 144 -11 159 -20 10 -6 11 -10 4 -10 -7 0 -13 -4 -13 -9 0 -14 123 -26
128 -12 4 13 101 15 121 2 11 -7 3 -12 -30 -21 -71 -18 -69 -19 23 -17 l87 2
-6 -160 c-3 -88 -10 -161 -14 -163 -5 -2 -9 -21 -9 -42 0 -21 -4 -42 -10 -45
-5 -3 -10 -26 -10 -50 0 -24 -4 -47 -10 -50 -5 -3 -10 -17 -10 -31 0 -13 -4
-24 -10 -24 -5 0 -10 -13 -10 -30 0 -16 -4 -30 -8 -30 -5 0 -21 -27 -37 -60
-16 -33 -39 -67 -52 -75 -13 -9 -23 -21 -23 -28 0 -12 -85 -57 -107 -57 -6 0
-13 -6 -15 -12 -7 -21 -195 -16 -235 5 -18 10 -33 23 -33 29 0 9 3 9 11 1 6
-6 17 -10 23 -7 6 2 45 8 86 13 l75 9 -107 -1 c-100 -1 -109 1 -127 22 -15 17
-19 32 -14 55 5 28 4 29 -9 12 -14 -17 -15 -17 -29 5 -34 56 -79 172 -79 207
0 12 -4 22 -10 22 -5 0 -10 7 -10 15 0 8 -4 23 -10 33 -5 9 -19 55 -30 101
-17 68 -20 100 -14 167 5 61 4 84 -5 84 -8 0 -9 -13 -5 -40 10 -60 -11 -49
-24 13 -13 59 -41 261 -37 265 1 1 25 4 54 5 28 1 46 4 41 5 -6 2 -8 8 -4 13
3 5 13 5 24 -1 10 -5 30 -10 44 -10z"/>
</g>
</svg>
